<svg width="375" height="328" viewBox="0 0 375 328" fill="none" xmlns="http://www.w3.org/2000/svg">
<path d="M257.661 -304.097C212.434 -319.172 163.241 -319.073 118.014 -303.998C99.4749 -297.818 85.4332 -282.288 81.2674 -263.194L70.143 -212.207C61.1551 -171.013 56.6612 -150.416 42.561 -136.51C28.4607 -122.603 7.80318 -118.395 -33.5119 -109.979L-80.7809 -100.351C-100.105 -96.4141 -115.866 -82.4326 -122.102 -63.7234C-137.178 -18.4968 -137.198 30.4598 -122.122 75.6864C-115.872 94.4388 -100.052 108.404 -80.6689 112.281L-32.51 121.913C9.73966 130.362 30.8645 134.587 45.1374 148.86C59.4104 163.133 63.6354 184.258 72.0853 226.508L81.7171 274.667C85.5937 294.05 99.559 309.869 118.311 316.12C163.538 331.196 212.434 331.196 257.661 316.12C276.413 309.869 290.379 294.05 294.255 274.667L303.887 226.508C312.337 184.258 316.562 163.133 330.835 148.86C345.108 134.587 366.233 130.362 408.482 121.913L456.641 112.281C476.024 108.404 491.844 94.4388 498.095 75.6864C513.17 30.4598 513.17 -18.4364 498.095 -63.6629C491.844 -82.4154 476.024 -96.3807 456.641 -100.257L408.482 -109.889C366.233 -118.339 345.108 -122.564 330.835 -136.837C316.562 -151.11 312.337 -172.235 303.887 -214.484L294.255 -262.643C290.379 -282.026 276.413 -297.846 257.661 -304.097Z" fill="#F3F3F4"/>
</svg>
