<svg width="104" height="104" viewBox="0 0 104 104" fill="none" xmlns="http://www.w3.org/2000/svg">
<path d="M63.146 2.38466C55.9097 -0.0274234 48.0388 -0.0115872 40.8026 2.4005C37.8363 3.38928 35.5896 5.87411 34.9231 8.92904L33.1432 17.087C31.7051 23.6781 30.9861 26.9736 28.73 29.1986C26.474 31.4236 23.1688 32.0969 16.5584 33.4434L8.99532 34.984C5.90343 35.6139 3.38174 37.8509 2.38392 40.8444C-0.0281673 48.0806 -0.0313888 55.9137 2.38069 63.15C3.38082 66.1503 5.91197 68.3848 9.01324 69.005L16.7187 70.5461C23.4786 71.8981 26.8586 72.5741 29.1423 74.8578C31.4259 77.1415 32.1019 80.5214 33.4539 87.2814L34.995 94.9868C35.6153 98.0881 37.8497 100.619 40.8501 101.619C48.0863 104.031 55.9097 104.031 63.146 101.619C66.1464 100.619 68.3808 98.0881 69.0011 94.9868L70.5422 87.2814C71.8942 80.5214 72.5702 77.1415 74.8538 74.8578C77.1375 72.5741 80.5175 71.8981 87.2774 70.5461L94.9829 69.0051C98.0841 68.3848 100.615 66.1503 101.615 63.15C104.027 55.9137 104.027 48.0903 101.615 40.8541C100.615 37.8537 98.0841 35.6192 94.9829 34.999L87.2774 33.4579C80.5175 32.1059 77.1375 31.4299 74.8538 29.1462C72.5702 26.8626 71.8942 23.4826 70.5422 16.7226L69.0011 9.0172C68.3808 5.91593 66.1464 3.38479 63.146 2.38466Z" fill="white"/>
</svg>
