<svg width="180" height="27" viewBox="0 0 180 27" fill="none" xmlns="http://www.w3.org/2000/svg">
<path d="M9.79712 27C7.98424 27 6.26936 26.7299 4.65247 26.1896C3.03558 25.6494 1.65142 24.8513 0.5 23.7954L3.47655 19.854C4.138 20.5171 4.9832 21.0941 6.01213 21.5853C7.06556 22.0764 8.16798 22.322 9.3194 22.322C9.90736 22.322 10.3973 22.2483 10.7893 22.101C11.2058 21.9536 11.414 21.6958 11.414 21.3274C11.414 21.0819 11.3038 20.8854 11.0833 20.7381C10.8873 20.5662 10.4586 20.4188 9.79712 20.296L7.88625 19.9277C5.38742 19.4366 3.61129 18.7244 2.55786 17.7913C1.52893 16.8336 1.01447 15.5812 1.01447 14.0341C1.01447 13.0273 1.32069 12.0573 1.93315 11.1241C2.57011 10.1664 3.56229 9.38063 4.9097 8.76671C6.28161 8.1528 8.04549 7.84584 10.2013 7.84584C12.0877 7.84584 13.7659 8.10368 15.2358 8.61937C16.7302 9.11051 17.9183 9.82265 18.8003 10.7558L15.8972 14.5866C15.2358 13.9482 14.4028 13.4447 13.3984 13.0764C12.3939 12.708 11.4385 12.5239 10.5321 12.5239C10.0666 12.5239 9.67463 12.5607 9.35615 12.6344C9.03767 12.708 8.79269 12.8186 8.6212 12.9659C8.47421 13.0887 8.40071 13.2606 8.40071 13.4816C8.40071 13.7271 8.53545 13.9482 8.80494 14.1446C9.09892 14.3165 9.62563 14.4761 10.3851 14.6235L13.3249 15.1392C15.2603 15.4829 16.6689 16.1214 17.5508 17.0546C18.4328 17.9877 18.8738 19.1296 18.8738 20.4802C18.8738 21.6835 18.5553 22.7763 17.9183 23.7585C17.2814 24.7408 16.2892 25.5266 14.9418 26.116C13.6189 26.7053 11.904 27 9.79712 27Z" fill="white"/>
<path d="M31.1156 15.0286C31.1156 14.3411 30.9318 13.8008 30.5643 13.4079C30.2214 12.9905 29.7069 12.7817 29.0209 12.7817C28.384 12.7817 27.8328 12.9536 27.3673 13.2974C26.9263 13.6412 26.6446 14.292 26.5221 15.2497L20.2383 14.1078C20.4833 12.1924 21.3775 10.6699 22.9209 9.54025C24.4643 8.41064 26.6691 7.84584 29.5354 7.84584C31.4953 7.84584 33.1367 8.12824 34.4596 8.69304C35.807 9.23329 36.8114 10.0314 37.4729 11.0873C38.1588 12.1432 38.5018 13.4079 38.5018 14.8813V21.0696C38.5018 22.0518 38.9428 22.543 39.8247 22.543C40.1922 22.543 40.4739 22.4939 40.6699 22.3956L40.3024 26.4106C39.494 26.8035 38.4896 27 37.2891 27C36.2357 27 35.3048 26.8404 34.4963 26.5211C33.6879 26.1774 33.0509 25.6862 32.5855 25.0478C32.12 24.4093 31.8873 23.5744 31.8873 22.543V22.2483L32.6222 22.1378C32.6222 23.1201 32.316 23.9795 31.7035 24.7162C31.1156 25.4529 30.3316 26.0177 29.3517 26.4106C28.3962 26.8035 27.3306 27 26.1546 27C24.8807 27 23.7906 26.8035 22.8841 26.4106C21.9777 26.0177 21.2795 25.4529 20.7895 24.7162C20.324 23.9795 20.0913 23.0832 20.0913 22.0273C20.0913 20.6767 20.4955 19.5716 21.304 18.7121C22.1369 17.8527 23.3863 17.2633 25.0522 16.9441L31.7035 15.5443L31.6668 18.6753L28.9475 19.3015C28.335 19.4243 27.8818 19.633 27.5878 19.9277C27.3183 20.1978 27.1836 20.5784 27.1836 21.0696C27.1836 21.5362 27.3428 21.9045 27.6613 22.1746C27.9798 22.4202 28.3717 22.543 28.8372 22.543C29.1557 22.543 29.4497 22.4939 29.7192 22.3956C29.9886 22.2974 30.2214 22.1501 30.4174 21.9536C30.6378 21.7572 30.8093 21.5116 30.9318 21.2169C31.0543 20.9222 31.1156 20.5662 31.1156 20.1487V15.0286Z" fill="white"/>
<path d="M42.1025 26.6317V8.21419H48.7905L49.1213 15.3233L48.3496 14.513C48.5456 13.0887 48.9498 11.8854 49.5622 10.9031C50.1747 9.89632 50.9586 9.13506 51.9141 8.61937C52.894 8.10368 54.0209 7.84584 55.2948 7.84584C56.5443 7.84584 57.6099 8.0914 58.4919 8.58254C59.3983 9.04911 60.0965 9.76126 60.5865 10.719C61.0765 11.6521 61.3214 12.8063 61.3214 14.1814V26.6317H53.8984V16.0969C53.8984 15.0655 53.727 14.3656 53.384 13.9973C53.0655 13.6044 52.6 13.4079 51.9876 13.4079C51.5221 13.4079 51.0934 13.5307 50.7014 13.7763C50.3339 13.9973 50.0399 14.3656 49.8195 14.8813C49.6235 15.397 49.5255 16.0723 49.5255 16.9072V26.6317H42.1025Z" fill="white"/>
<path d="M71.1373 27C69.6429 27 68.3445 26.6317 67.2421 25.895C66.1642 25.1337 65.3312 24.0409 64.7433 22.6166C64.1798 21.1924 63.8981 19.4857 63.8981 17.4966C63.8981 15.4584 64.192 13.7271 64.78 12.3029C65.368 10.854 66.2132 9.74898 67.3156 8.98772C68.4425 8.22647 69.7532 7.84584 71.2476 7.84584C72.9869 7.84584 74.3466 8.39836 75.3265 9.50341C76.3065 10.5839 76.9312 11.9714 77.2007 13.6658L76.5392 14.5866V0.626194H83.9622V26.6317H77.2742L76.8332 19.7435L77.6784 20.5907C77.5314 21.8431 77.1639 22.9604 76.576 23.9427C76.0125 24.9004 75.2653 25.6494 74.3344 26.1896C73.4279 26.7299 72.3622 27 71.1373 27ZM74.0036 21.6958C74.5426 21.6958 74.9958 21.5362 75.3633 21.2169C75.7308 20.8977 76.0125 20.4188 76.2085 19.7804C76.429 19.1419 76.5392 18.3438 76.5392 17.3861C76.5392 16.4775 76.4412 15.7162 76.2452 15.1023C76.0737 14.4638 75.792 13.985 75.4 13.6658C75.0326 13.3465 74.5671 13.1869 74.0036 13.1869C73.1952 13.1869 72.546 13.5061 72.056 14.1446C71.5905 14.7585 71.3578 15.8513 71.3578 17.4229C71.3578 18.9945 71.5905 20.0996 72.056 20.7381C72.5215 21.3765 73.1707 21.6958 74.0036 21.6958Z" fill="white"/>
<path d="M96.3811 7.84584C98.39 7.84584 100.142 8.22647 101.636 8.98772C103.13 9.72442 104.294 10.8049 105.127 12.2292C105.96 13.6535 106.376 15.3847 106.376 17.4229C106.376 19.4366 105.96 21.1678 105.127 22.6166C104.294 24.0409 103.13 25.1337 101.636 25.895C100.142 26.6317 98.39 27 96.3811 27C94.4213 27 92.6819 26.6317 91.163 25.895C89.6686 25.1337 88.4927 24.0409 87.6352 22.6166C86.8023 21.1678 86.3858 19.4366 86.3858 17.4229C86.3858 15.3847 86.8023 13.6535 87.6352 12.2292C88.4927 10.8049 89.6686 9.72442 91.163 8.98772C92.6819 8.22647 94.4213 7.84584 96.3811 7.84584ZM96.3811 12.9659C95.8422 12.9659 95.3767 13.101 94.9847 13.3711C94.6173 13.6412 94.3355 14.1078 94.1395 14.7708C93.9436 15.4338 93.8456 16.3179 93.8456 17.4229C93.8456 18.528 93.9436 19.412 94.1395 20.075C94.3355 20.7135 94.6173 21.1801 94.9847 21.4748C95.3767 21.7449 95.8422 21.8799 96.3811 21.8799C96.9446 21.8799 97.4101 21.7449 97.7775 21.4748C98.145 21.1801 98.4268 20.7135 98.6227 20.075C98.8187 19.412 98.9167 18.528 98.9167 17.4229C98.9167 16.3179 98.8187 15.4338 98.6227 14.7708C98.4268 14.1078 98.145 13.6412 97.7775 13.3711C97.4101 13.101 96.9446 12.9659 96.3811 12.9659Z" fill="white"/>
<path d="M132.796 8.21419H140.513L135.258 26.6317H126.181L123.462 16.5389L120.816 26.6317H111.739L106.484 8.21419H114.201L116.774 21.2906L119.86 8.21419H127.137L130.223 21.2906L132.796 8.21419Z" fill="white"/>
<path d="M143.605 19.633C144.927 19.633 145.944 19.9522 146.655 20.5907C147.365 21.2292 147.72 22.1255 147.72 23.2797C147.72 24.4338 147.365 25.3302 146.655 25.9686C145.944 26.6071 144.927 26.9263 143.605 26.9263C142.331 26.9263 141.326 26.6071 140.591 25.9686C139.856 25.3302 139.489 24.4338 139.489 23.2797C139.489 22.1255 139.856 21.2292 140.591 20.5907C141.326 19.9522 142.331 19.633 143.605 19.633Z" fill="white"/>
<path d="M160.649 15.0286C160.649 14.3411 160.465 13.8008 160.098 13.4079C159.755 12.9905 159.24 12.7817 158.554 12.7817C157.918 12.7817 157.366 12.9536 156.901 13.2974C156.46 13.6412 156.178 14.292 156.056 15.2497L149.772 14.1078C150.017 12.1924 150.911 10.6699 152.454 9.54025C153.998 8.41064 156.203 7.84584 159.069 7.84584C161.029 7.84584 162.67 8.12824 163.993 8.69304C165.341 9.23329 166.345 10.0314 167.006 11.0873C167.692 12.1432 168.035 13.4079 168.035 14.8813V21.0696C168.035 22.0518 168.476 22.543 169.358 22.543C169.726 22.543 170.007 22.4939 170.203 22.3956L169.836 26.4106C169.028 26.8035 168.023 27 166.823 27C165.769 27 164.838 26.8404 164.03 26.5211C163.221 26.1774 162.584 25.6862 162.119 25.0478C161.654 24.4093 161.421 23.5744 161.421 22.543V22.2483L162.156 22.1378C162.156 23.1201 161.85 23.9795 161.237 24.7162C160.649 25.4529 159.865 26.0177 158.885 26.4106C157.93 26.8035 156.864 27 155.688 27C154.414 27 153.324 26.8035 152.418 26.4106C151.511 26.0177 150.813 25.4529 150.323 24.7162C149.858 23.9795 149.625 23.0832 149.625 22.0273C149.625 20.6767 150.029 19.5716 150.837 18.7121C151.67 17.8527 152.92 17.2633 154.586 16.9441L161.237 15.5443L161.2 18.6753L158.481 19.3015C157.869 19.4243 157.415 19.633 157.121 19.9277C156.852 20.1978 156.717 20.5784 156.717 21.0696C156.717 21.5362 156.876 21.9045 157.195 22.1746C157.513 22.4202 157.905 22.543 158.371 22.543C158.689 22.543 158.983 22.4939 159.253 22.3956C159.522 22.2974 159.755 22.1501 159.951 21.9536C160.171 21.7572 160.343 21.5116 160.465 21.2169C160.588 20.9222 160.649 20.5662 160.649 20.1487V15.0286Z" fill="white"/>
<path d="M175.348 6.59345C173.878 6.59345 172.812 6.33561 172.15 5.81992C171.514 5.30423 171.195 4.46931 171.195 3.31514C171.195 2.13643 171.514 1.28922 172.15 0.773534C172.812 0.257845 173.878 0 175.348 0C176.817 0 177.871 0.257845 178.508 0.773534C179.169 1.28922 179.5 2.13643 179.5 3.31514C179.5 4.46931 179.169 5.30423 178.508 5.81992C177.871 6.33561 176.817 6.59345 175.348 6.59345ZM179.059 8.21419V26.6317H171.636V8.21419H179.059Z" fill="white"/>
</svg>
