<svg width="24" height="24" viewBox="0 0 24 24" fill="none" xmlns="http://www.w3.org/2000/svg">
<path d="M15.2627 9.67223C13.1228 9.24426 10.8975 9.24015 8.76038 9.66758C7.98066 9.82352 7.2809 10.2494 6.78416 10.8703L4.47539 13.7563L7.01003 13.0771L7.52767 15.009L4.67011 15.7747C4.53965 15.8096 4.40441 15.8233 4.26959 15.8152C2.988 15.7383 1.81743 15.0625 1.11001 13.991C1.03559 13.8783 0.979835 13.7544 0.944879 13.6239L0.179199 10.7663L2.11105 10.2487L2.76569 12.6919L5.22242 9.62094C6.01312 8.63256 7.127 7.95465 8.36815 7.70642C10.7669 7.22667 13.2588 7.23185 15.6549 7.71107C16.867 7.95349 17.973 8.60552 18.7675 9.55892L22.7681 14.3597L21.2317 15.6401L17.231 10.8393C16.7322 10.2406 16.0317 9.82603 15.2627 9.67223Z" fill="#676C75"/>
</svg>
