<svg width="24" height="24" viewBox="0 0 24 24" fill="none" xmlns="http://www.w3.org/2000/svg">
<path fill-rule="evenodd" clip-rule="evenodd" d="M12.4477 5.89432L7.17497 8.53069C6.89641 8.66996 6.67055 8.89583 6.53127 9.17438C6.24021 9.75652 6.0444 10.3724 5.94385 10.9999H20.0005V12.9999H5.94385C6.0444 13.6274 6.2402 14.2433 6.53127 14.8254C6.67055 15.104 6.89641 15.3298 7.17497 15.4691L12.4477 18.1055L11.5533 19.8943L6.28054 17.258C5.61493 16.9252 5.07522 16.3854 4.74242 15.7198C3.57154 13.3781 3.57154 10.6217 4.74242 8.27996C5.07522 7.61435 5.61493 7.07464 6.28054 6.74183L6.70987 7.60048L6.28054 6.74183L11.5533 4.10547L12.4477 5.89432Z" fill="#111214"/>
</svg>
