<svg width="24" height="24" viewBox="0 0 24 24" fill="none" xmlns="http://www.w3.org/2000/svg">
<path d="M8.73713 9.67223C10.877 9.24426 13.1023 9.24015 15.2394 9.66758C16.0191 9.82352 16.7189 10.2494 17.2156 10.8703L19.5244 13.7563L16.9898 13.0771L16.4721 15.009L19.3297 15.7747C19.4602 15.8096 19.5954 15.8233 19.7302 15.8152C21.0118 15.7383 22.1824 15.0625 22.8898 13.991C22.9642 13.8783 23.02 13.7544 23.0549 13.6239L23.8206 10.7663L21.8888 10.2487L21.2341 12.6919L18.7774 9.62094C17.9867 8.63256 16.8728 7.95465 15.6317 7.70642C13.2329 7.22667 10.741 7.23185 8.3449 7.71107C7.13282 7.95349 6.02683 8.60552 5.23233 9.55892L1.23169 14.3597L2.76813 15.6401L6.76877 10.8393C7.26764 10.2406 7.96813 9.82603 8.73713 9.67223Z" fill="#676C75"/>
</svg>
