<svg width="49" height="48" viewBox="0 0 49 48" fill="none" xmlns="http://www.w3.org/2000/svg">
<path d="M28.5 4.66684C27.8705 4.87668 27.3765 5.37066 27.1667 6.00017C26.7339 7.29839 26.7339 8.70195 27.1667 10.0002C27.3765 10.6297 27.8705 11.1237 28.5 11.3335C29.7982 11.7662 31.2018 11.7662 32.5 11.3335C33.1295 11.1237 33.6235 10.6297 33.8333 10.0002C34.2661 8.70195 34.2661 7.2984 33.8333 6.00017C33.6235 5.37066 33.1295 4.87668 32.5 4.66684C31.2018 4.2341 29.7982 4.2341 28.5 4.66684Z" fill="#BABBBE"/>
<path d="M28.4999 19.8002L26.8999 18.2002L22.0999 23.0002L24.281 25.2805C25.3767 26.4259 25.9245 26.9986 26.2122 27.7156C26.4999 28.4326 26.4999 29.2252 26.4999 30.8102V39.5149C26.4999 39.8256 26.3765 40.1236 26.1568 40.3433C25.2417 41.2584 23.7581 41.2584 22.843 40.3433C22.6233 40.1236 22.4999 39.8256 22.4999 39.5149V31.8152C22.4999 30.9219 22.4999 30.4752 22.3212 30.0813C22.1424 29.6874 21.8063 29.3932 21.134 28.805L16.0999 24.4002C15.2999 23.8002 14.8999 22.8002 14.8999 21.6002C14.8999 20.6002 15.2999 19.6002 16.0999 18.8002L21.6999 13.2002C22.2999 12.4002 23.2999 12.0002 24.4999 12.0002C25.6999 12.0002 26.6999 12.4002 27.6999 13.2002L31.4999 17.0002C33.2017 18.702 35.4399 19.8675 38.2145 19.9896C38.5249 20.0032 38.8233 20.1236 39.043 20.3433C39.9581 21.2584 39.9581 22.742 39.043 23.657C38.8233 23.8767 38.5249 24.0022 38.2143 23.993C34.2371 23.8744 30.9989 22.2992 28.4999 19.8002Z" fill="#BABBBE"/>
<path fill-rule="evenodd" clip-rule="evenodd" d="M28.5385 33.216C28.5 33.6072 28.5 34.0715 28.5 35.0002C28.5 35.9289 28.5 36.3932 28.5385 36.7843C28.9126 40.5825 31.9176 43.5876 35.7159 43.9617C36.107 44.0002 36.5713 44.0002 37.5 44.0002C38.4287 44.0002 38.893 44.0002 39.2841 43.9617C43.0824 43.5876 46.0874 40.5825 46.4615 36.7843C46.5 36.3932 46.5 35.9289 46.5 35.0002C46.5 34.0715 46.5 33.6072 46.4615 33.216C46.0874 29.4178 43.0824 26.4128 39.2841 26.0387C38.893 26.0002 38.4287 26.0002 37.5 26.0002C36.5713 26.0002 36.107 26.0002 35.7159 26.0387C31.9176 26.4128 28.9126 29.4178 28.5385 33.216ZM36.1079 39.9809C36.2542 39.9953 36.4761 40.0002 37.5 40.0002C38.5239 40.0002 38.7458 39.9953 38.8921 39.9809C40.7912 39.7939 42.2937 38.2914 42.4807 36.3922C42.4951 36.246 42.5 36.024 42.5 35.0002C42.5 33.9763 42.4951 33.7544 42.4807 33.6081C42.2937 31.709 40.7912 30.2065 38.8921 30.0194C38.7458 30.005 38.5239 30.0002 37.5 30.0002C36.4761 30.0002 36.2542 30.005 36.1079 30.0194C34.2088 30.2065 32.7063 31.709 32.5193 33.6081C32.5049 33.7544 32.5 33.9763 32.5 35.0002C32.5 36.024 32.5049 36.246 32.5193 36.3922C32.7063 38.2914 34.2088 39.7939 36.1079 39.9809Z" fill="#BABBBE"/>
<path fill-rule="evenodd" clip-rule="evenodd" d="M2.5 35.0002C2.5 34.0715 2.5 33.6072 2.53852 33.216C2.91261 29.4178 5.91765 26.4128 9.71586 26.0387C10.107 26.0002 10.5713 26.0002 11.5 26.0002C12.4287 26.0002 12.893 26.0002 13.2841 26.0387C17.0824 26.4128 20.0874 29.4178 20.4615 33.216C20.5 33.6072 20.5 34.0715 20.5 35.0002C20.5 35.9289 20.5 36.3932 20.4615 36.7843C20.0874 40.5825 17.0824 43.5876 13.2841 43.9617C12.893 44.0002 12.4287 44.0002 11.5 44.0002C10.5713 44.0002 10.107 44.0002 9.71586 43.9617C5.91765 43.5876 2.91261 40.5825 2.53852 36.7843C2.5 36.3932 2.5 35.9289 2.5 35.0002ZM11.5 40.0002C10.4761 40.0002 10.2542 39.9953 10.1079 39.9809C8.20882 39.7939 6.70631 38.2914 6.51926 36.3922C6.50486 36.246 6.5 36.024 6.5 35.0002C6.5 33.9763 6.50486 33.7544 6.51926 33.6081C6.70631 31.709 8.20882 30.2065 10.1079 30.0194C10.2542 30.005 10.4761 30.0002 11.5 30.0002C12.5239 30.0002 12.7458 30.005 12.8921 30.0194C14.7912 30.2065 16.2937 31.709 16.4807 33.6081C16.4951 33.7544 16.5 33.9763 16.5 35.0002C16.5 36.024 16.4951 36.246 16.4807 36.3922C16.2937 38.2914 14.7912 39.7939 12.8921 39.9809C12.7458 39.9953 12.5239 40.0002 11.5 40.0002Z" fill="#BABBBE"/>
</svg>
