<svg width="19" height="18" viewBox="0 0 19 18" fill="none" xmlns="http://www.w3.org/2000/svg">
<path d="M7.63441 7.67564C8.84538 7.27198 10.1546 7.27198 11.3656 7.67564C11.582 7.74779 11.7519 7.91764 11.824 8.13409C12.2277 9.34507 12.2277 10.6543 11.824 11.8653C11.7519 12.0817 11.582 12.2516 11.3656 12.3237C10.1546 12.7274 8.84538 12.7274 7.63441 12.3237C7.41796 12.2516 7.24811 12.0817 7.17596 11.8653C6.7723 10.6543 6.7723 9.34507 7.17596 8.13409C7.24811 7.91764 7.41796 7.74779 7.63441 7.67564Z" fill="white"/>
<path fill-rule="evenodd" clip-rule="evenodd" d="M4.25706 2.99968C2.62512 2.99968 1.1909 4.08152 0.742576 5.65067L0.703573 5.78718C-0.0804785 8.53136 -0.0170943 11.4484 0.885416 14.1559C1.2682 15.3043 2.21113 16.1775 3.38545 16.471L3.64333 16.5355C7.4886 17.4968 11.5114 17.4968 15.3567 16.5355L15.6145 16.471C16.7889 16.1775 17.7318 15.3043 18.1146 14.1559C19.0171 11.4484 19.0805 8.53135 18.2964 5.78718L18.2574 5.65066C17.8091 4.08152 16.3749 2.99968 14.7429 2.99968H14.18C13.7633 2.99968 13.3823 2.76421 13.1959 2.39143L12.7426 1.48496C12.5873 1.17424 12.3148 0.937967 11.9853 0.82811C10.3721 0.290369 8.62794 0.290369 7.01472 0.82811C6.68515 0.937967 6.41272 1.17424 6.25736 1.48496L5.80413 2.39143C5.61774 2.76421 5.23673 2.99968 4.81995 2.99968H4.25706ZM11.998 5.77827C10.3765 5.23777 8.62346 5.23777 7.00195 5.77827C6.18829 6.04949 5.54981 6.68797 5.27859 7.50164C4.73809 9.12315 4.73809 10.8762 5.27859 12.4977C5.54981 13.3114 6.18829 13.9499 7.00195 14.2211C8.62346 14.7616 10.3765 14.7616 11.998 14.2211C12.8117 13.9499 13.4502 13.3114 13.7214 12.4977C14.2619 10.8762 14.2619 9.12315 13.7214 7.50164C13.4502 6.68798 12.8117 6.04949 11.998 5.77827Z" fill="white"/>
</svg>
