<svg width="49" height="48" viewBox="0 0 49 48" fill="none" xmlns="http://www.w3.org/2000/svg">
<path fill-rule="evenodd" clip-rule="evenodd" d="M22.7107 4.01122C23.6447 4.11017 24.384 4.84572 24.4878 5.77922L27.6721 34.4384L30.6001 27.8504C31.0789 26.773 31.5003 25.8247 31.9348 25.0741C32.4052 24.2615 32.9754 23.5245 33.83 22.9691C34.6846 22.4137 35.5896 22.192 36.5233 22.0922C37.3856 22 38.4233 22 39.6024 22.0001L44.5 22.0001V26.0001H39.699C38.3946 26.0001 37.573 26.0027 36.9486 26.0695C36.372 26.1312 36.1491 26.2325 36.0097 26.3231C35.8702 26.4137 35.6871 26.5763 35.3966 27.0781C35.082 27.6215 34.7459 28.3713 34.2161 29.5633L28.3276 42.8124C27.9608 43.6378 27.0862 44.1148 26.1936 43.9765C25.3011 43.8381 24.612 43.1187 24.5122 42.2209L21.5178 15.2712L20.1876 19.2618C19.776 20.4968 19.4153 21.5792 19.0158 22.438C18.5839 23.3663 18.0276 24.2171 17.1252 24.8675C16.2228 25.518 15.2398 25.7767 14.2225 25.8928C13.2815 26.0002 12.1405 26.0002 10.8387 26.0001L4.5 26.0001V22.0001H10.7339C12.1714 22.0001 13.0816 21.9971 13.7688 21.9186C14.4048 21.846 14.6412 21.7272 14.7864 21.6226C14.9315 21.518 15.119 21.3312 15.389 20.7508C15.6808 20.1237 15.9714 19.2612 16.426 17.8975L20.6026 5.36763C20.8996 4.47658 21.7767 3.91227 22.7107 4.01122Z" fill="#BABBBE"/>
</svg>
