<svg width="24" height="24" viewBox="0 0 24 24" fill="none" xmlns="http://www.w3.org/2000/svg">
<path fill-rule="evenodd" clip-rule="evenodd" d="M13 2.46424L13 4.06583C12.9999 4.95232 12.9999 5.71613 13.0821 6.32779C13.1703 6.98331 13.369 7.61166 13.8787 8.12132C14.3883 8.63098 15.0167 8.82973 15.6722 8.91786C16.2839 9.0001 17.0477 9.00005 17.9342 9L19.2857 9L19.3962 9.77357C19.7967 12.577 19.7967 15.423 19.3962 18.2264C19.1614 19.87 17.8483 21.1645 16.2047 21.3993C13.4374 21.7946 10.5953 21.7993 7.82804 21.404C6.16326 21.1662 4.87026 19.8321 4.68455 18.1607L4.63252 17.6925C4.58905 17.3012 4.56731 17.1056 4.54723 16.9103C4.21147 13.6454 4.21147 10.3546 4.54723 7.08965C4.56731 6.89437 4.58905 6.69874 4.63252 6.30747L4.77288 5.04427C4.90659 3.84085 5.83756 2.88034 7.03622 2.7091L9.21736 2.39751C10.4774 2.2175 11.7543 2.2412 13 2.46424ZM16 13L8 13V11L16 11V13ZM8 17H13V15H8V17Z" fill="#BABBBE"/>
<path d="M15 3.04832V4C15 4.97108 15.0021 5.59879 15.0643 6.0613C15.1226 6.49504 15.2168 6.63098 15.2929 6.70711C15.369 6.78323 15.505 6.87738 15.9387 6.93569C16.4012 6.99788 17.0289 7 18 7H18.7565C18.6117 6.72921 18.4357 6.47488 18.2311 6.24252C18.1471 6.14708 18.0551 6.05504 17.871 5.87095L15.2485 3.24844C15.1728 3.17277 15.0895 3.10574 15 3.04832Z" fill="#BABBBE"/>
</svg>
