<svg width="24" height="24" viewBox="0 0 24 24" fill="none" xmlns="http://www.w3.org/2000/svg">
<path d="M11.1795 12.0001C11.3471 11.6381 11.638 11.3471 12 11.1796C12.362 11.3471 12.6529 11.6381 12.8205 12.0001C12.6529 12.362 12.362 12.653 12 12.8205C11.638 12.653 11.3471 12.362 11.1795 12.0001Z" fill="white"/>
<path fill-rule="evenodd" clip-rule="evenodd" d="M5.90338 2.67116C9.95532 2.22094 14.0447 2.22094 18.0966 2.67116L18.3926 2.70405C20.4551 2.93321 22 4.69865 22 6.7561C22 7.80797 21.5832 8.83091 20.8345 9.5796C20.3666 10.0475 20.1635 10.7183 20.2933 11.3672L20.4499 12.1504C20.8261 14.0315 20.8261 15.9684 20.4499 17.8494C20.0855 19.6714 18.6118 21.0655 16.7724 21.3283L16.4649 21.3722C13.5033 21.7953 10.4967 21.7953 7.53513 21.3722L7.22763 21.3283C5.38824 21.0655 3.91449 19.6714 3.55009 17.8494C3.17389 15.9684 3.17389 14.0315 3.55009 12.1504L3.70673 11.3672C3.83651 10.7183 3.6334 10.0475 3.16548 9.5796C2.41679 8.83091 2 7.80797 2 6.7561C2 4.69865 3.54493 2.93321 5.60735 2.70405L5.90338 2.67116ZM14.7872 11.5424C14.4205 10.4426 13.5575 9.57951 12.4576 9.2129C12.1606 9.11388 11.8394 9.11388 11.5424 9.2129C10.4425 9.57951 9.57945 10.4426 9.21284 11.5424C9.11382 11.8395 9.11382 12.1606 9.21284 12.4577C9.57945 13.5576 10.4425 14.4206 11.5424 14.7872C11.8394 14.8862 12.1606 14.8862 12.4576 14.7872C13.5575 14.4206 14.4205 13.5576 14.7872 12.4577C14.8862 12.1606 14.8862 11.8395 14.7872 11.5424Z" fill="white"/>
</svg>
