<svg width="23" height="15" viewBox="0 0 23 15" fill="none" xmlns="http://www.w3.org/2000/svg">
<path d="M8.83233 0.769176C6.98145 0.240353 5.01947 0.240353 3.16859 0.769175L3.08238 0.793807C2.21743 1.04094 1.54131 1.71705 1.29418 2.58201L1.23338 2.79483C0.728197 4.56296 0.728197 6.43722 1.23338 8.20535C1.5369 9.26767 2.50788 10.0001 3.61272 10.0001H4.4442C4.56314 10.0001 4.6263 10.0002 4.6724 10.0019L4.67897 10.0021L4.68051 10.0085C4.69117 10.0534 4.7037 10.1153 4.72703 10.232L5.23784 12.786C5.29271 13.0606 5.34713 13.3329 5.41631 13.56C5.4941 13.8153 5.61477 14.1017 5.85221 14.3583C5.97694 14.4931 6.11965 14.6101 6.27632 14.706C6.57454 14.8885 6.87903 14.9507 7.14465 14.9769C7.38085 15.0002 7.65853 15.0001 7.93854 15.0001L8.66672 15.0001C9.63668 15.0001 10.4645 14.2988 10.6239 13.3421L10.6785 13.0148C11.2318 9.69456 11.2318 6.30561 10.6785 2.98536L10.6481 2.80293C10.4861 1.83135 9.77941 1.03977 8.83233 0.769176Z" fill="white"/>
<path d="M14.1686 0.769175C16.0195 0.240353 17.9814 0.240353 19.8323 0.769176C20.7794 1.03977 21.4861 1.83135 21.6481 2.80293L21.6785 2.98536C22.2318 6.30561 22.2318 9.69456 21.6785 13.0148L21.6239 13.3421C21.4645 14.2988 20.6367 15.0001 19.6667 15.0001L18.9386 15.0001C18.6586 15.0001 18.3809 15.0002 18.1447 14.9769C17.879 14.9507 17.5745 14.8885 17.2763 14.706C17.1197 14.6101 16.9769 14.4931 16.8522 14.3583C16.6148 14.1017 16.4941 13.8153 16.4163 13.56C16.3471 13.3329 16.2927 13.0606 16.2378 12.7861L15.727 10.232C15.7037 10.1153 15.6912 10.0534 15.6805 10.0085L15.679 10.0021L15.6724 10.0019C15.6263 10.0002 15.5631 10.0001 15.4442 10.0001H14.6127C13.5079 10.0001 12.5369 9.26767 12.2334 8.20535C11.7282 6.43722 11.7282 4.56296 12.2334 2.79483L12.2942 2.58201C12.5413 1.71705 13.2174 1.04094 14.0824 0.793807L14.1686 0.769175Z" fill="white"/>
</svg>
