<svg width="48" height="48" viewBox="0 0 48 48" fill="none" xmlns="http://www.w3.org/2000/svg">
<path fill-rule="evenodd" clip-rule="evenodd" d="M13.92 8.88002C11.4822 9.57655 9.57655 11.4822 8.88001 13.92C6.99768 20.5082 6.99768 27.4918 8.88001 34.08C9.57654 36.5179 11.4822 38.4235 13.92 39.12C20.5082 41.0024 27.4918 41.0024 34.08 39.12C36.5179 38.4235 38.4235 36.5179 39.12 34.08C41.0023 27.4918 41.0024 20.5082 39.12 13.92C38.4235 11.4822 36.5179 9.57655 34.08 8.88002C27.4918 6.99768 20.5082 6.99768 13.92 8.88002ZM14.1026 26.6325L14.3124 27.2617C14.724 28.4967 15.0847 29.5791 15.4842 30.4379C15.9161 31.3663 16.4724 32.2171 17.3748 32.8675C18.2772 33.5179 19.2602 33.7766 20.2775 33.8927C21.2186 34.0002 22.3595 34.0001 23.6613 34H24.3388C25.6405 34.0001 26.7815 34.0002 27.7225 33.8927C28.7398 33.7766 29.7228 33.5179 30.6252 32.8675C31.5276 32.2171 32.0839 31.3663 32.5158 30.4379C32.9153 29.5792 33.276 28.4968 33.6876 27.2619L33.8974 26.6325L30.1026 25.3676L29.926 25.8974C29.4715 27.2611 29.1808 28.1236 28.8891 28.7507C28.619 29.3311 28.4315 29.5179 28.2864 29.6225C28.1413 29.7271 27.9048 29.8459 27.2688 29.9185C26.5816 29.997 25.6714 30 24.2339 30H23.7661C22.3286 30 21.4184 29.997 20.7313 29.9185C20.0952 29.8459 19.8588 29.7271 19.7136 29.6225C19.5685 29.5179 19.381 29.3311 19.111 28.7507C18.8193 28.1236 18.5286 27.2611 18.074 25.8974L17.8974 25.3676L14.1026 26.6325ZM28.75 17.5C28.9123 17.1755 29.1755 16.9123 29.5 16.75C30.4443 16.2779 31.5557 16.2779 32.5 16.75C32.8246 16.9123 33.0877 17.1755 33.25 17.5C33.7222 18.4443 33.7222 19.5557 33.25 20.5C33.0877 20.8246 32.8246 21.0877 32.5 21.25C31.5557 21.7221 30.4443 21.7221 29.5 21.25C29.1755 21.0877 28.9123 20.8246 28.75 20.5C28.2779 19.5557 28.2779 18.4443 28.75 17.5ZM15.5 16.75C15.1755 16.9123 14.9123 17.1755 14.75 17.5C14.2779 18.4443 14.2779 19.5557 14.75 20.5C14.9123 20.8246 15.1755 21.0877 15.5 21.25C16.4443 21.7221 17.5557 21.7221 18.5 21.25C18.8246 21.0877 19.0877 20.8246 19.25 20.5C19.7221 19.5557 19.7221 18.4443 19.25 17.5C19.0877 17.1755 18.8246 16.9123 18.5 16.75C17.5557 16.2779 16.4443 16.2779 15.5 16.75Z" fill="white"/>
</svg>
