<svg width="24" height="25" viewBox="0 0 24 25" fill="none" xmlns="http://www.w3.org/2000/svg">
<path d="M13.0539 4.73823C11.7882 3.83421 10.0692 4.94569 10.3743 6.47083L10.8002 8.60068C10.8716 8.9572 10.76 9.32577 10.5029 9.58286C10.1363 9.94939 9.56205 10.0063 9.13075 9.71872L8.15569 9.06868C7.31742 8.50983 6.17732 8.86394 5.80315 9.79936L5.02976 11.7328C4.33236 13.4763 4.15712 15.385 4.52539 17.2264C4.90121 19.1055 6.25511 20.6392 8.0731 21.2452L8.47596 21.3795C10.7634 22.1419 13.2364 22.1419 15.5239 21.3795L15.7954 21.2889C17.6946 20.6559 19.109 19.0537 19.5016 17.0906L19.5777 16.7099C19.8695 15.2511 19.8695 13.749 19.5777 12.2902C19.1442 10.1225 17.9019 8.20108 16.103 6.91619L13.0539 4.73823Z" fill="white"/>
</svg>
