<svg width="24" height="24" viewBox="0 0 24 24" fill="none" xmlns="http://www.w3.org/2000/svg">
<path fill-rule="evenodd" clip-rule="evenodd" d="M8.41927 1.58297C10.7901 1.18784 13.21 1.18784 15.5808 1.58297C17.5506 1.91127 19.0626 3.50804 19.2832 5.49281L19.3565 6.15299C19.4049 6.58863 19.4299 6.81355 19.4528 7.03845C19.7886 10.3376 19.7886 13.6623 19.4528 16.9615C19.4299 17.1864 19.4049 17.4113 19.3565 17.8469L19.2832 18.5071C19.0626 20.4919 17.5506 22.0887 15.5808 22.417C13.21 22.8121 10.7901 22.8121 8.41927 22.417C6.44946 22.0887 4.93742 20.4919 4.71689 18.5071L4.64355 17.8471C4.59515 17.4115 4.57014 17.1864 4.54725 16.9615C4.21146 13.6623 4.21146 10.3376 4.54725 7.03845C4.57014 6.81353 4.59513 6.5886 4.64355 6.15289L4.71689 5.49281C4.93742 3.50804 6.44946 1.91127 8.41927 1.58297ZM11.25 16.375C11.0877 16.4561 10.9561 16.5877 10.875 16.75C10.6389 17.2221 10.6389 17.7779 10.875 18.25C10.9561 18.4123 11.0877 18.5439 11.25 18.625C11.7221 18.8611 12.2779 18.8611 12.75 18.625C12.9123 18.5439 13.0439 18.4123 13.125 18.25C13.3611 17.7779 13.3611 17.2221 13.125 16.75C13.0439 16.5877 12.9123 16.4561 12.75 16.375C12.2779 16.1389 11.7221 16.1389 11.25 16.375Z" fill="#676C75"/>
</svg>
