<svg width="49" height="48" viewBox="0 0 49 48" fill="none" xmlns="http://www.w3.org/2000/svg">
<path d="M24.5 2.66684C23.8705 2.87668 23.3765 3.37066 23.1667 4.00017C22.7339 5.29839 22.7339 6.70195 23.1667 8.00017C23.3765 8.62969 23.8705 9.12367 24.5 9.33351C25.7982 9.76625 27.2018 9.76625 28.5 9.33351C29.1295 9.12367 29.6235 8.62969 29.8333 8.00017C30.2661 6.70195 30.2661 5.2984 29.8333 4.00017C29.6235 3.37066 29.1295 2.87668 28.5 2.66684C27.2018 2.2341 25.7982 2.2341 24.5 2.66684Z" fill="#BABBBE"/>
<path d="M29.9001 17.2002C31.0601 19.2202 33.0401 20.8202 35.5001 21.5602V18.5002C35.5001 18.1756 35.6054 17.8598 35.8001 17.6002C36.4001 16.8002 37.6001 16.8002 38.2001 17.6002C38.3948 17.8598 38.5001 18.1756 38.5001 18.5002L38.5 43.7224C38.5 43.9027 38.4415 44.0781 38.3334 44.2224C37.6667 45.1113 36.3334 45.1113 35.6668 44.2224C35.5586 44.0782 35.5001 43.9027 35.5001 43.7224V25.6802C32.3201 25.0202 29.5001 23.3002 27.5001 21.0002L26.3001 27.0002L28.0173 28.6356C29.2413 29.8013 29.8533 30.3841 30.1767 31.1388C30.5001 31.8934 30.5001 32.7385 30.5001 34.4287V43.5149C30.5001 43.8256 30.3767 44.1236 30.1569 44.3433C29.2419 45.2584 27.7583 45.2584 26.8432 44.3433C26.6235 44.1236 26.5001 43.8256 26.5001 43.5149V35.7145C26.5001 34.8694 26.5001 34.4468 26.3384 34.0695C26.1767 33.6922 25.8707 33.4007 25.2587 32.8179L22.3001 30.0002L19.2127 43.722C19.1715 43.9049 19.0879 44.0755 18.9686 44.2201C18.1493 45.2131 16.6907 45.3787 15.6697 44.5947L15.529 44.4867C15.141 44.1887 14.9545 43.7016 15.0494 43.2217C16.5015 35.8767 20.3523 16.403 20.6601 14.8802C21.0401 13.0002 22.6601 12.0002 24.2201 12.0002C25.6801 12.0002 27.0801 12.7002 27.9001 14.0002L29.9001 17.2002Z" fill="#BABBBE"/>
<path d="M13.422 25.8853C14.5331 26.1002 15.6326 25.4631 15.9986 24.3923C16.9955 21.4761 17.6168 18.4448 17.8475 15.3716L17.9604 13.8675C18.0173 13.1099 17.4997 12.4291 16.7544 12.2813L15.7401 12.0802C13.5801 11.6602 11.4801 13.0802 11.0601 15.2402L9.54009 23.1002C9.32009 24.1802 10.0401 25.2202 11.1201 25.4402L13.422 25.8853Z" fill="#BABBBE"/>
</svg>
