<svg width="24" height="24" viewBox="0 0 24 24" fill="none" xmlns="http://www.w3.org/2000/svg">
<path d="M4.33875 12.2377C4.1154 12.7402 4 13.284 4 13.834V17.013C4 18.7194 5.27065 20.1587 6.96387 20.3704C7.30886 20.4135 7.65427 20.4522 8 20.4864V16.3245C8 15.103 8.78159 14.0186 9.94036 13.6324C11.2773 13.1867 12.7227 13.1867 14.0596 13.6324C15.2184 14.0186 16 15.103 16 16.3245V20.4864C16.3457 20.4522 16.6911 20.4135 17.0361 20.3704C18.7294 20.1587 20 18.7194 20 17.013V13.834C20 13.284 19.8846 12.7402 19.6613 12.2377C18.5719 9.78664 16.8735 7.65504 14.7277 6.04569L13.5893 5.19188C12.6475 4.48552 11.3525 4.48552 10.4107 5.19188L9.27228 6.04569C7.12648 7.65504 5.42812 9.78664 4.33875 12.2377Z" fill="#111214"/>
<path d="M14 20.6346V16.3245C14 15.9639 13.7693 15.6437 13.4272 15.5297C12.5008 15.2209 11.4992 15.2209 10.5728 15.5297C10.2307 15.6437 10 15.9639 10 16.3245V20.6346C11.3325 20.7004 12.6675 20.7004 14 20.6346Z" fill="#111214"/>
</svg>
