<svg width="49" height="48" viewBox="0 0 49 48" fill="none" xmlns="http://www.w3.org/2000/svg">
<path d="M25.5 3.66684C24.8705 3.87668 24.3765 4.37066 24.1667 5.00017C23.7339 6.29839 23.7339 7.70195 24.1667 9.00017C24.3765 9.62969 24.8705 10.1237 25.5 10.3335C26.7982 10.7662 28.2018 10.7662 29.5 10.3335C30.1295 10.1237 30.6235 9.62969 30.8333 9.00017C31.2661 7.70195 31.2661 6.2984 30.8333 5.00017C30.6235 4.37066 30.1295 3.87668 29.5 3.66684C28.2018 3.2341 26.7982 3.2341 25.5 3.66684Z" fill="#BABBBE"/>
<path d="M26.5 44.1461C26.5 44.6695 26.7958 45.148 27.2639 45.3821C28.0421 45.7712 28.958 45.7712 29.7361 45.3821C30.2043 45.148 30.5 44.6695 30.5 44.1461V34.4287C30.5 32.7385 30.5 31.8934 30.1766 31.1388C29.8532 30.3841 29.2412 29.8013 28.0173 28.6356L26.3 27.0002L27.5 21.0002C28.8 22.5002 30.4083 23.7085 32.325 24.6252C33.9916 25.4223 35.7654 25.8728 37.6463 25.9768C38.1689 26.0057 38.6479 25.7044 38.882 25.2362C39.271 24.4581 39.271 23.5422 38.882 22.7641C38.6479 22.2959 38.1686 22.0078 37.6466 21.9689C36.0897 21.8527 34.6825 21.4131 33.425 20.6502C31.9417 19.7502 30.7667 18.6002 29.9 17.2002L27.9 14.0002C27.5333 13.4002 27.05 12.9168 26.45 12.5502C25.85 12.1835 25.2 12.0002 24.5 12.0002C24.0333 12.0002 23.525 12.0752 22.975 12.2252C22.425 12.3752 21.5667 12.7002 20.4 13.2002L16.9534 14.6835C14.9848 15.5307 14.0006 15.9544 13.3763 16.7349C13.2222 16.9276 13.0862 17.1341 12.9702 17.3518C12.5 18.2338 12.5 19.3054 12.5 21.4485V25.1461C12.5 25.6695 12.7958 26.148 13.2639 26.3821C14.0421 26.7712 14.958 26.7712 15.7361 26.3821C16.2043 26.148 16.5 25.6695 16.5 25.1461V21.6227C16.5 20.6059 16.5 20.0975 16.71 19.6761C16.792 19.5117 16.8962 19.3594 17.0197 19.2234C17.3363 18.8749 17.8102 18.6907 18.7579 18.3221L20.1 17.8002L17.6832 30.0351C17.3143 31.9026 17.1299 32.8363 16.4343 33.2973C15.7386 33.7582 14.8068 33.5641 12.9432 33.1758L8.08134 32.163C7.59756 32.0622 7.09668 32.2261 6.7661 32.5934L6.60189 32.7759C5.93715 33.5145 5.79225 34.5847 6.23663 35.4734C6.40287 35.8059 6.71287 36.0434 7.07717 36.1173L12.6403 37.246C16.2583 37.9801 18.0672 38.3471 19.4361 37.4629C20.8049 36.5786 21.214 34.7786 22.0321 31.1788L22.3 30.0002L25.2586 32.8179C25.8706 33.4007 26.1766 33.6922 26.3383 34.0695C26.5 34.4468 26.5 34.8694 26.5 35.7145V44.1461Z" fill="#BABBBE"/>
</svg>
