<svg width="24" height="24" viewBox="0 0 24 24" fill="none" xmlns="http://www.w3.org/2000/svg">
<path fill-rule="evenodd" clip-rule="evenodd" d="M16.7653 5.40129C13.6508 4.51142 10.3493 4.51142 7.23473 5.40129C6.34801 5.65464 5.65488 6.34776 5.40153 7.23448C4.51166 10.349 4.51167 13.6505 5.40153 16.765C5.65488 17.6518 6.34801 18.3449 7.23473 18.5982C10.3493 19.4881 13.6507 19.4881 16.7653 18.5982C17.652 18.3449 18.3451 17.6518 18.5985 16.765C19.4883 13.6505 19.4884 10.349 18.5985 7.23448C18.3451 6.34776 17.652 5.65464 16.7653 5.40129ZM6.68528 3.47824C10.1589 2.48577 13.8411 2.48577 17.3147 3.47824C18.8659 3.92142 20.0783 5.1339 20.5215 6.68504C21.514 10.1587 21.514 13.8408 20.5215 17.3145C20.0784 18.8656 18.8659 20.0781 17.3147 20.5213C13.8411 21.5138 10.1589 21.5138 6.68529 20.5213C5.13415 20.0781 3.92166 18.8656 3.47848 17.3145C2.48601 13.8408 2.48601 10.1587 3.47848 6.68504C3.92167 5.1339 5.13415 3.92142 6.68528 3.47824Z" fill="#2563EB"/>
<path fill-rule="evenodd" clip-rule="evenodd" d="M6.68528 3.47873C10.1589 2.48626 13.8411 2.48626 17.3147 3.47873C18.8659 3.92191 20.0783 5.13439 20.5215 6.68553C21.514 10.1592 21.514 13.8413 20.5215 17.315C20.0784 18.8661 18.8659 20.0786 17.3147 20.5218C13.8411 21.5142 10.1589 21.5142 6.68529 20.5218C5.13415 20.0786 3.92166 18.8661 3.47848 17.315C2.48601 13.8413 2.48601 10.1592 3.47848 6.68553C3.92167 5.13439 5.13415 3.92191 6.68528 3.47873ZM6.82853 7.2577C6.93839 7.09292 7.1092 6.97852 7.3034 6.93968L7.85797 6.82877C10.5923 6.2819 13.4079 6.2819 16.1422 6.82877L16.6968 6.93968C16.891 6.97852 17.0618 7.09292 17.1717 7.2577C17.6733 8.01019 17.6733 8.9905 17.1717 9.74299C17.0618 9.90777 16.891 10.0222 16.6968 10.061L16.1422 10.1719C15.1036 10.3796 14.0533 10.5085 13.0001 10.5584V9.00034H11.0001V10.5584C9.94694 10.5085 8.8966 10.3796 7.85797 10.1719L7.3034 10.061C7.1092 10.0222 6.93839 9.90777 6.82853 9.74299C6.32688 8.9905 6.32688 8.01019 6.82853 7.2577Z" fill="#2563EB"/>
</svg>
