<svg width="17" height="19" viewBox="0 0 17 19" fill="none" xmlns="http://www.w3.org/2000/svg">
<path d="M11.4217 0.407343C9.48373 0.130495 7.51628 0.130495 5.57834 0.407343C2.66441 0.823619 0.500001 3.3192 0.500001 6.26272V10.1434C0.500001 10.435 0.533212 10.7213 0.596729 10.9979C0.72797 9.55557 1.05626 8.37267 1.96447 7.46447C2.76702 6.66191 3.77752 6.31672 4.97767 6.15536C6.13362 5.99995 7.60337 5.99997 9.42682 6L10.5 6V8H9.5C7.58611 8 6.25129 8.00212 5.24416 8.13753C4.26579 8.26907 3.7477 8.50966 3.37868 8.87868C2.86474 9.39262 2.61135 10.1814 2.5341 12.0415L0.535949 11.9585C0.49997 12.8207 0.499985 13.8071 0.500001 14.9268V19H2.5V15C2.5 14.4555 2.50017 13.958 2.50354 13.5014C2.60366 13.5554 2.70677 13.6053 2.8127 13.6507L3.94283 14.135C6.85457 15.3829 10.2017 15.1453 12.9142 13.5178C13.7481 13.0174 14.4823 12.357 15.0668 11.5778C16.657 9.45743 17.3102 6.77865 16.8745 4.16429L16.786 3.63305C16.5359 2.13294 15.3431 0.967552 13.8376 0.752479L11.4217 0.407343Z" fill="#BABBBE"/>
</svg>
