<svg width="19" height="18" viewBox="0 0 19 18" fill="none" xmlns="http://www.w3.org/2000/svg">
<path d="M18.5 1.32353V16.6765C18.5 17.0275 18.3606 17.3641 18.1123 17.6123C17.8641 17.8606 17.5275 18 17.1765 18H1.82353C1.47251 18 1.13586 17.8606 0.887653 17.6123C0.639443 17.3641 0.5 17.0275 0.5 16.6765L0.5 1.32353C0.5 0.972508 0.639443 0.635863 0.887653 0.387653C1.13586 0.139443 1.47251 0 1.82353 0L17.1765 0C17.5275 0 17.8641 0.139443 18.1123 0.387653C18.3606 0.635863 18.5 0.972508 18.5 1.32353V1.32353ZM5.79412 6.88235H3.14706V15.3529H5.79412V6.88235ZM6.03235 3.97059C6.03375 3.77036 5.99569 3.57182 5.92035 3.3863C5.84502 3.20078 5.73387 3.03191 5.59328 2.88935C5.45268 2.74678 5.28537 2.6333 5.10091 2.5554C4.91646 2.47749 4.71846 2.43668 4.51824 2.43529H4.47059C4.0634 2.43529 3.6729 2.59705 3.38497 2.88497C3.09705 3.1729 2.93529 3.5634 2.93529 3.97059C2.93529 4.37777 3.09705 4.76828 3.38497 5.05621C3.6729 5.34413 4.0634 5.50588 4.47059 5.50588V5.50588C4.67083 5.51081 4.87008 5.47623 5.05696 5.40413C5.24383 5.33202 5.41467 5.2238 5.5597 5.08565C5.70474 4.94749 5.82113 4.78212 5.90223 4.59897C5.98333 4.41582 6.02755 4.21848 6.03235 4.01824V3.97059ZM15.8529 10.2071C15.8529 7.66059 14.2329 6.67059 12.6235 6.67059C12.0966 6.6442 11.5719 6.75644 11.1019 6.9961C10.6318 7.23577 10.2328 7.59448 9.94471 8.03647H9.87059V6.88235H7.38235V15.3529H10.0294V10.8476C9.99115 10.3862 10.1365 9.92835 10.4339 9.57347C10.7313 9.2186 11.1567 8.9954 11.6176 8.95235H11.7182C12.56 8.95235 13.1847 9.48177 13.1847 10.8159V15.3529H15.8318L15.8529 10.2071Z" fill="#393C43"/>
</svg>
