<svg width="24" height="24" viewBox="0 0 24 24" fill="none" xmlns="http://www.w3.org/2000/svg">
<path d="M10.1622 5.16219L11.6807 6.68073C11.857 6.85701 12.1428 6.85701 12.3191 6.68074L13.8376 5.16219C15.1289 3.8709 17.1016 3.55077 18.735 4.36746C19.5561 4.77799 20.2218 5.44376 20.6324 6.26483L20.8362 6.67258C21.5743 8.14862 21.625 9.87473 20.9749 11.3916L20.931 11.4941C19.6779 14.4181 17.5057 16.8538 14.7436 18.4321L13.7799 18.9828C12.677 19.613 11.3229 19.613 10.2199 18.9828L9.25619 18.4321C6.49417 16.8538 4.32198 14.4181 3.06886 11.4941L3.02491 11.3916C2.37484 9.87473 2.42556 8.14862 3.16358 6.67258L3.36746 6.26483C3.77799 5.44376 4.44376 4.77799 5.26483 4.36746C6.8982 3.55077 8.8709 3.8709 10.1622 5.16219Z" fill="#EF4444"/>
</svg>
