<svg width="24" height="24" viewBox="0 0 24 24" fill="none" xmlns="http://www.w3.org/2000/svg">
<path fill-rule="evenodd" clip-rule="evenodd" d="M16.765 5.40129C13.6505 4.51142 10.349 4.51142 7.23448 5.40129C6.34776 5.65464 5.65464 6.34776 5.40129 7.23448C4.51142 10.349 4.51142 13.6505 5.40129 16.765C5.65464 17.6518 6.34776 18.3449 7.23448 18.5982C10.349 19.4881 13.6505 19.4881 16.765 18.5982C17.6518 18.3449 18.3449 17.6518 18.5982 16.765C19.4881 13.6505 19.4881 10.349 18.5982 7.23448C18.3449 6.34776 17.6518 5.65464 16.765 5.40129ZM6.68504 3.47824C10.1587 2.48577 13.8408 2.48577 17.3145 3.47824C18.8656 3.92142 20.0781 5.1339 20.5213 6.68504C21.5138 10.1587 21.5138 13.8408 20.5213 17.3145C20.0781 18.8656 18.8656 20.0781 17.3145 20.5213C13.8408 21.5138 10.1587 21.5138 6.68504 20.5213C5.1339 20.0781 3.92142 18.8656 3.47824 17.3145C2.48577 13.8408 2.48577 10.1587 3.47824 6.68504C3.92142 5.1339 5.13391 3.92142 6.68504 3.47824Z" fill="#676C75"/>
<path fill-rule="evenodd" clip-rule="evenodd" d="M6.68553 3.47873C10.1592 2.48626 13.8413 2.48626 17.315 3.47873C18.8661 3.92191 20.0786 5.13439 20.5218 6.68553C21.5142 10.1592 21.5142 13.8413 20.5218 17.315C20.0786 18.8661 18.8661 20.0786 17.315 20.5218C13.8413 21.5142 10.1592 21.5142 6.68553 20.5218C5.13439 20.0786 3.92191 18.8661 3.47873 17.315C2.48626 13.8413 2.48626 10.1592 3.47873 6.68553C3.92191 5.13439 5.13439 3.92191 6.68553 3.47873ZM6.82877 7.2577C6.93863 7.09292 7.10945 6.97852 7.30365 6.93968L7.85821 6.82877C10.5926 6.2819 13.4081 6.2819 16.1425 6.82877L16.697 6.93968C16.8912 6.97852 17.0621 7.09292 17.1719 7.2577C17.6736 8.01019 17.6736 8.9905 17.1719 9.74299C17.0621 9.90777 16.8912 10.0222 16.697 10.061L16.1425 10.1719C15.1039 10.3796 14.0535 10.5085 13.0003 10.5584V9.00034H11.0003V10.5584C9.94719 10.5085 8.89684 10.3796 7.85821 10.1719L7.30365 10.061C7.10945 10.0222 6.93863 9.90777 6.82877 9.74299C6.32712 8.9905 6.32712 8.01019 6.82877 7.2577Z" fill="#676C75"/>
</svg>
