<svg width="49" height="48" viewBox="0 0 49 48" fill="none" xmlns="http://www.w3.org/2000/svg">
<path d="M21.7 20.5999C20.9 22.1999 20.9 23.9999 21.7 25.5999C23.3 26.3999 25.1 26.3999 26.7 25.5999C27.5 23.9999 27.5 22.1999 26.7 20.5999C25.3 19.7999 23.3 19.7999 21.7 20.5999Z" fill="#BABBBE"/>
<path d="M40.1 24.9999C40.1 24.3999 40.3 23.7999 40.3 23.1999C40.3 22.5999 40.3 21.9999 40.1 21.3999C40.3 21.1999 40.7 20.9999 40.9 20.5999C41.7 19.7999 42.1 18.7999 42.1 17.5999C41.9 14.7999 40.5 11.9999 37.9 10.3999C36.9 9.7999 35.9 9.5999 34.7 9.9999C34.3 9.9999 34.1 10.1999 33.7 10.3999C32.7 9.5999 31.7 8.9999 30.5 8.5999C30.5 8.1999 30.3 7.9999 30.3 7.5999C30.1 6.5999 29.3 5.5999 28.3 5.1999C25.7 3.7999 22.7 3.7999 20.1 5.1999C19.1 5.3999 18.5 6.3999 18.1 7.3999C18.1 7.7999 17.9 7.9999 17.9 8.3999C16.9 8.9999 15.7 9.5999 14.9 10.1999C14.5 10.1999 14.1 9.9999 13.9 9.9999C12.7 9.5999 11.5 9.7999 10.7 10.3999C8.3 11.9999 6.7 14.7999 6.5 17.5999C6.5 18.7999 6.9 19.7999 7.7 20.5999C7.9 20.7999 8.1 20.9999 8.5 21.3999C8.5 21.9999 8.3 22.5999 8.3 23.1999C8.3 23.7999 8.3 24.3999 8.5 24.9999C8.3 25.1999 7.9 25.3999 7.7 25.7999C6.9 26.3999 6.5 27.5999 6.5 28.5999C6.7 31.5999 8.3 34.1999 10.7 35.7999C11.7 36.3999 12.7 36.5999 13.9 36.1999C14.1 36.1999 14.5 35.9999 14.9 35.9999C15.9 36.7999 16.9 37.3999 18.1 37.7999C18.1 38.1999 18.3 38.3999 18.3 38.7999C18.5 39.7999 19.3 40.7999 20.3 41.1999C22.9 42.5999 25.9 42.5999 28.5 41.1999C29.5 40.5999 30.3 39.7999 30.5 38.7999C30.5 38.3999 30.7 38.1999 30.7 37.7999C31.9 37.3999 32.9 36.7999 33.9 35.9999C34.3 36.1999 34.5 36.1999 34.9 36.3999C35.9 36.7999 37.1 36.5999 38.1 35.9999C40.5 34.3999 42.1 31.7999 42.3 28.7999C42.3 27.5999 41.9 26.5999 41.1 25.7999C40.7 25.3999 40.5 25.1999 40.1 24.9999ZM30.3 27.3999C29.9 28.1999 29.3 28.7999 28.5 29.1999C27.1 29.7999 25.7 30.1999 24.1 30.1999C22.5 30.1999 21.1 29.7999 19.7 29.1999C18.9 28.7999 18.3 28.1999 17.9 27.3999C16.5 24.5999 16.5 21.3999 17.9 18.7999C18.7 17.9999 19.3 17.3999 19.9 16.9999C22.7 15.5999 25.9 15.5999 28.5 16.9999C29.3 17.3999 29.9 17.9999 30.3 18.7999C31.7 21.5999 31.7 24.7999 30.3 27.3999Z" fill="#BABBBE"/>
</svg>
