<svg width="16" height="20" viewBox="0 0 16 20" fill="none" xmlns="http://www.w3.org/2000/svg">
<path d="M0.5 0V7.67544C0.5 8.89689 1.28159 9.98129 2.44036 10.3675C2.78752 10.4833 3.142 10.5689 3.5 10.6246V20H5.5V10.6246C5.858 10.5689 6.21248 10.4833 6.55964 10.3675C7.71841 9.98129 8.5 8.89689 8.5 7.67544V0H6.5V7.67544C6.5 8.03603 6.26927 8.35615 5.92719 8.47018C5.78635 8.51712 5.64378 8.55693 5.5 8.5896V0H3.5V8.5896C3.35622 8.55693 3.21365 8.51712 3.07281 8.47018C2.73073 8.35615 2.5 8.03603 2.5 7.67544V0H0.5Z" fill="#BABBBE"/>
<path d="M12.107 0.97882C13.3591 -0.273294 15.5 0.613504 15.5 2.38426V20H13.5V13.9997C13.0333 13.9985 12.6227 13.9922 12.2742 13.9594C11.8177 13.9164 11.3665 13.821 10.9451 13.5656C10.5317 13.3151 10.1849 12.9683 9.93439 12.5549C9.67903 12.1335 9.58364 11.6823 9.54061 11.2258C9.49995 10.7944 9.49998 10.2678 9.5 9.65735L9.5 7.27259C9.5 4.91197 10.4378 2.64803 12.107 0.97882Z" fill="#BABBBE"/>
</svg>
