<svg width="25" height="24" viewBox="0 0 25 24" fill="none" xmlns="http://www.w3.org/2000/svg">
<path fill-rule="evenodd" clip-rule="evenodd" d="M12.9472 4.10547L18.2199 6.74183L17.7848 7.61209L18.2199 6.74183C18.8855 7.07464 19.4253 7.61435 19.7581 8.27996C20.9289 10.6217 20.9289 13.3781 19.7581 15.7198C19.4253 16.3854 18.8855 16.9252 18.2199 17.258L12.9472 19.8943L12.0528 18.1055L17.3255 15.4691C17.6041 15.3298 17.8299 15.104 17.9692 14.8254C18.2603 14.2433 18.4561 13.6274 18.5566 12.9999H4.5V10.9999H18.5566C18.4561 10.3724 18.2603 9.75652 17.9692 9.17438C17.8299 8.89583 17.6041 8.66996 17.3255 8.53069L17.7727 7.63626L17.3255 8.53069L12.0528 5.89432L12.9472 4.10547Z" fill="#111214"/>
</svg>
