<svg width="20" height="20" viewBox="0 0 20 20" fill="none" xmlns="http://www.w3.org/2000/svg">
<path fill-rule="evenodd" clip-rule="evenodd" d="M5.51676 1.3827C3.87925 2.47437 2.47413 3.8795 1.38246 5.517C0.38 7.02069 0.38 8.97966 1.38246 10.4833C2.47413 12.1208 3.87925 13.526 5.51676 14.6176C7.02044 15.6201 8.97941 15.6201 10.4831 14.6176C11.023 14.2577 11.5376 13.8637 12.0241 13.4385L18.2929 19.7073L19.7071 18.2931L13.4383 12.0243C13.8635 11.5378 14.2575 11.0232 14.6174 10.4833C15.6199 8.97966 15.6199 7.02069 14.6174 5.517C13.5257 3.8795 12.1206 2.47437 10.4831 1.3827C8.97941 0.380244 7.02044 0.380245 5.51676 1.3827ZM3.04656 6.6264C3.99176 5.2086 5.20836 3.992 6.62616 3.0468C7.45805 2.49221 8.54181 2.49221 9.3737 3.0468C10.7915 3.992 12.0081 5.2086 12.9533 6.6264C13.5079 7.45829 13.5079 8.54206 12.9533 9.37395C12.0081 10.7917 10.7915 12.0083 9.3737 12.9535C8.54181 13.5081 7.45805 13.5081 6.62616 12.9535C5.20836 12.0083 3.99176 10.7917 3.04656 9.37395C2.49197 8.54206 2.49197 7.45829 3.04656 6.6264Z" fill="#111214"/>
</svg>
