<svg width="24" height="24" viewBox="0 0 24 24" fill="none" xmlns="http://www.w3.org/2000/svg">
<path d="M10.6 10.3002C10.2 11.1002 10.2 12.0002 10.6 12.8002C11.4 13.2002 12.3 13.2002 13.1 12.8002C13.5 12.0002 13.5 11.1002 13.1 10.3002C12.4 9.9002 11.4 9.9002 10.6 10.3002Z" fill="#111214"/>
<path d="M19.8 12.5002C19.8 12.2002 19.9 11.9002 19.9 11.6002C19.9 11.3002 19.9 11.0002 19.8 10.7002C19.9 10.6002 20.1 10.5002 20.2 10.3002C20.6 9.9002 20.8 9.4002 20.8 8.8002C20.7 7.4002 20 6.0002 18.7 5.2002C18.2 4.9002 17.7 4.8002 17.1 5.0002C16.9 5.0002 16.8 5.1002 16.6 5.2002C16.1 4.8002 15.6 4.5002 15 4.3002C15 4.1002 14.9 4.0002 14.9 3.8002C14.8 3.3002 14.4 2.8002 13.9 2.6002C12.6 1.9002 11.1 1.9002 9.8 2.6002C9.3 2.7002 9 3.2002 8.8 3.7002C8.8 3.9002 8.7 4.0002 8.7 4.2002C8.2 4.5002 7.6 4.8002 7.2 5.1002C7 5.1002 6.8 5.0002 6.7 5.0002C6.1 4.8002 5.5 4.9002 5.1 5.2002C3.9 6.0002 3.1 7.4002 3 8.8002C3 9.4002 3.2 9.9002 3.6 10.3002C3.7 10.4002 3.8 10.5002 4 10.7002C4 11.0002 3.9 11.3002 3.9 11.6002C3.9 11.9002 3.9 12.2002 4 12.5002C3.9 12.6002 3.7 12.7002 3.6 12.9002C3.2 13.2002 3 13.8002 3 14.3002C3.1 15.8002 3.9 17.1002 5.1 17.9002C5.6 18.2002 6.1 18.3002 6.7 18.1002C6.8 18.1002 7 18.0002 7.2 18.0002C7.7 18.4002 8.2 18.7002 8.8 18.9002C8.8 19.1002 8.9 19.2002 8.9 19.4002C9 19.9002 9.4 20.4002 9.9 20.6002C11.2 21.3002 12.7 21.3002 14 20.6002C14.5 20.3002 14.9 19.9002 15 19.4002C15 19.2002 15.1 19.1002 15.1 18.9002C15.7 18.7002 16.2 18.4002 16.7 18.0002C16.9 18.1002 17 18.1002 17.2 18.2002C17.7 18.4002 18.3 18.3002 18.8 18.0002C20 17.2002 20.8 15.9002 20.9 14.4002C20.9 13.8002 20.7 13.3002 20.3 12.9002C20.1 12.7002 20 12.6002 19.8 12.5002ZM14.9 13.7002C14.7 14.1002 14.4 14.4002 14 14.6002C13.3 14.9002 12.6 15.1002 11.8 15.1002C11 15.1002 10.3 14.9002 9.6 14.6002C9.2 14.4002 8.9 14.1002 8.7 13.7002C8 12.3002 8 10.7002 8.7 9.4002C9.1 9.0002 9.4 8.7002 9.7 8.5002C11.1 7.8002 12.7 7.8002 14 8.5002C14.4 8.7002 14.7 9.0002 14.9 9.4002C15.6 10.8002 15.6 12.4002 14.9 13.7002Z" fill="#111214"/>
</svg>
