<svg width="49" height="48" viewBox="0 0 49 48" fill="none" xmlns="http://www.w3.org/2000/svg">
<path d="M29.1667 4.00017C29.3765 3.37066 29.8705 2.87668 30.5 2.66684C31.7982 2.2341 33.2018 2.2341 34.5 2.66684C35.1295 2.87668 35.6235 3.37066 35.8333 4.00017C36.2661 5.2984 36.2661 6.70195 35.8333 8.00017C35.6235 8.62969 35.1295 9.12367 34.5 9.33351C33.2018 9.76625 31.7982 9.76625 30.5 9.33351C29.8705 9.12367 29.3765 8.62969 29.1667 8.00017C28.7339 6.70195 28.7339 5.29839 29.1667 4.00017Z" fill="#BABBBE"/>
<path fill-rule="evenodd" clip-rule="evenodd" d="M38.6464 23.9725C39.1688 24.0064 39.6479 23.7044 39.882 23.2362C40.271 22.4581 40.271 21.5422 39.882 20.7641C39.6479 20.2959 39.1679 20.0095 38.647 19.9588C35.401 19.6429 32.5883 17.5449 31.3 14.6002L30.1 12.2002C29.9 11.2002 28.7 10.0002 26.9 10.0002H19.934C17.7664 10.0002 16.6826 10.0002 15.7779 10.5016C14.8732 11.003 14.2988 11.9221 13.15 13.7602L10.8945 17.369C10.6494 17.7611 10.6261 18.2524 10.8329 18.6659C11.2472 19.4945 12.0634 20.0471 12.9866 20.1241L13.0504 20.1294C13.5714 20.1728 14.0723 19.919 14.3455 19.4733L16.5295 15.9099C17.1015 14.9767 17.3875 14.5101 17.8428 14.2551C18.2981 14.0002 18.8454 14.0002 19.9399 14.0002H22.5L17.5 21.6002C16.9 22.6002 16.7 23.8002 17.1 25.0002L19.0381 31.1127C19.3618 32.1337 19.5237 32.6442 19.4251 33.1462C19.3266 33.6483 18.9838 34.0597 18.2981 34.8824L15.7072 37.9915C12.779 37.8786 9.99409 36.6658 7.91421 34.586L5.08578 37.4144C8.02202 40.3506 12.0044 42.0002 16.1569 42.0002H32.8431C36.9956 42.0002 40.978 40.3506 43.9142 37.4144L41.0858 34.586C39.055 36.6167 36.3521 37.8208 33.5 37.9817V33.4232C33.5 31.2608 33.5 30.1796 33.0006 29.2763C32.5012 28.373 31.5855 27.798 29.7541 26.6481L24.9 23.6002L28.5 17.8002C30.5631 21.3638 34.3851 23.6961 38.6464 23.9725ZM29.5 38.0002V34.0105C29.5 32.9298 29.5 32.3895 29.2505 31.938C29.0011 31.4865 28.5436 31.199 27.6287 30.6239L22.5 27.4002L23.2128 29.7524C23.842 31.8289 24.1566 32.8671 23.9385 33.8791C23.7204 34.8912 23.006 35.7076 21.5772 37.3405L21 38.0002H29.5Z" fill="#BABBBE"/>
<path d="M9.25 43.5002C9.41228 43.1756 9.67544 42.9125 10 42.7502C10.9443 42.278 12.0557 42.278 13 42.7502C13.3246 42.9125 13.5877 43.1756 13.75 43.5002C14.2221 44.4444 14.2221 45.5559 13.75 46.5002C13.5877 46.8247 13.3246 47.0879 13 47.2502C12.0557 47.7223 10.9443 47.7223 10 47.2502C9.67544 47.0879 9.41228 46.8247 9.25 46.5002C8.77786 45.5559 8.77786 44.4444 9.25 43.5002Z" fill="#BABBBE"/>
<path d="M36 42.7502C35.6754 42.9125 35.4123 43.1756 35.25 43.5002C34.7779 44.4444 34.7779 45.5559 35.25 46.5002C35.4123 46.8247 35.6754 47.0879 36 47.2502C36.9443 47.7223 38.0557 47.7223 39 47.2502C39.3246 47.0879 39.5877 46.8247 39.75 46.5002C40.2221 45.5559 40.2221 44.4444 39.75 43.5002C39.5877 43.1756 39.3246 42.9125 39 42.7502C38.0557 42.278 36.9443 42.278 36 42.7502Z" fill="#BABBBE"/>
</svg>
