<svg width="24" height="24" viewBox="0 0 24 24" fill="none" xmlns="http://www.w3.org/2000/svg">
<path d="M9.92 6.96406C9.19727 6.85834 8.52263 6.52264 7.99999 6C7.3597 5.35971 6.99999 4.49129 6.99999 3.58579V3.12915C6.99999 3.00921 6.99999 2.94924 7.00513 2.89874C7.05319 2.42655 7.42654 2.0532 7.89872 2.00514C7.94923 2 8.0092 2 8.12914 2H8.58578C9.49128 2 10.3597 2.35971 11 3C11.3778 3.37777 11.6579 3.83494 11.824 4.33229C12.1972 3.58469 12.691 2.89482 13.2929 2.29289L14.7071 3.70711C13.8551 4.55911 13.2941 5.64773 13.0881 6.81851C14.098 6.91962 15.0972 7.16185 16.0556 7.54521C17.1499 7.98294 18.017 8.85006 18.4548 9.94439C19.4962 12.5478 19.4962 15.4521 18.4548 18.0556C18.017 19.1499 17.1499 20.0171 16.0556 20.4548C13.4521 21.4962 10.5478 21.4962 7.94439 20.4548C6.85005 20.0171 5.98293 19.1499 5.5452 18.0556C4.50382 15.4521 4.50381 12.5478 5.5452 9.94439C5.98293 8.85006 6.85005 7.98294 7.94438 7.54521C8.58759 7.28793 9.24915 7.09421 9.92 6.96406Z" fill="#BABBBE"/>
</svg>
