<svg width="24" height="24" viewBox="0 0 24 24" fill="none" xmlns="http://www.w3.org/2000/svg">
<path fill-rule="evenodd" clip-rule="evenodd" d="M5.40086 6.10185L7.01816 8.12347L7.11865 8.24939C7.6064 8.86128 8.03986 9.40504 8.66168 9.70391C9.28351 10.0028 9.97889 10.0016 10.7614 10.0002L10.9225 10H13.0775L13.2386 10.0002C14.0211 10.0016 14.7165 10.0028 15.3383 9.70391C15.9601 9.40504 16.3936 8.86128 16.8813 8.2494L16.9818 8.12348L18.5991 6.10192C20.1142 6.83854 21.2259 8.27336 21.5142 10.0032C21.6246 10.6653 21.6981 11.3319 21.7348 12H23V14H21.7348C21.6981 14.6682 21.6246 15.3348 21.5142 15.9969C21.1283 18.3125 19.2669 20.0995 16.9375 20.3906L16.707 20.4194C13.5811 20.8102 10.4187 20.8102 7.29278 20.4194L7.06233 20.3906C4.7329 20.0995 2.87151 18.3125 2.48557 15.9969C2.37523 15.3348 2.3017 14.6682 2.265 14H1V12H2.265C2.30171 11.3319 2.37523 10.6653 2.48557 10.0032C2.77389 8.27331 3.88566 6.83844 5.40086 6.10185ZM7.375 12.75C7.45614 12.5877 7.58772 12.4561 7.75 12.375C8.22214 12.1389 8.77786 12.1389 9.25 12.375C9.41228 12.4561 9.54386 12.5877 9.625 12.75C9.86107 13.2221 9.86107 13.7779 9.625 14.25C9.54386 14.4123 9.41228 14.5439 9.25 14.625C8.77786 14.8611 8.22214 14.8611 7.75 14.625C7.58772 14.5439 7.45614 14.4123 7.375 14.25C7.13893 13.7779 7.13893 13.2221 7.375 12.75ZM14.75 12.375C14.5877 12.4561 14.4561 12.5877 14.375 12.75C14.1389 13.2221 14.1389 13.7779 14.375 14.25C14.4561 14.4123 14.5877 14.5439 14.75 14.625C15.2221 14.8611 15.7779 14.8611 16.25 14.625C16.4123 14.5439 16.5439 14.4123 16.625 14.25C16.8611 13.7779 16.8611 13.2221 16.625 12.75C16.5439 12.5877 16.4123 12.4561 16.25 12.375C15.7779 12.1389 15.2221 12.1389 14.75 12.375Z" fill="white"/>
<path d="M7.52272 5.55262L8.57989 6.87408C9.23001 7.68673 9.37084 7.82574 9.52806 7.9013C9.68528 7.97687 9.88181 8 10.9225 8H13.0775C14.1182 8 14.3147 7.97687 14.4719 7.9013C14.6292 7.82574 14.77 7.68673 15.4201 6.87409L16.4773 5.55264C13.5029 5.19926 10.4971 5.19925 7.52272 5.55262Z" fill="white"/>
</svg>
