<svg width="22" height="18" viewBox="0 0 22 18" fill="none" xmlns="http://www.w3.org/2000/svg">
<path d="M9.60219 6.51987C10.5097 6.21737 11.4908 6.21737 12.3983 6.51987C12.9091 6.69012 13.3099 7.09093 13.4801 7.6017C13.7826 8.50919 13.7826 9.49032 13.4801 10.3978C13.3099 10.9086 12.9091 11.3094 12.3983 11.4796C11.4908 11.7821 10.5097 11.7821 9.60219 11.4796C9.09142 11.3094 8.69061 10.9086 8.52036 10.3978C8.21786 9.49032 8.21786 8.50919 8.52036 7.6017C8.69061 7.09093 9.09142 6.69012 9.60219 6.51987Z" fill="#BABBBE"/>
<path fill-rule="evenodd" clip-rule="evenodd" d="M3.49057 3.9105C7.71801 -0.0391774 14.2824 -0.0391774 18.5099 3.9105C18.8581 4.23589 19.2368 4.65662 19.899 5.39247L20.6197 6.1932C20.762 6.35131 20.8823 6.52788 20.9774 6.71815C21.6956 8.15446 21.6956 9.84508 20.9774 11.2814C20.8823 11.4717 20.762 11.6482 20.6197 11.8063L19.899 12.607C19.2369 13.3428 18.8581 13.7637 18.5099 14.089C14.2824 18.0387 7.71801 18.0387 3.49057 14.089C3.14229 13.7636 2.76365 13.3429 2.10139 12.607L1.38077 11.8063C1.23847 11.6482 1.11813 11.4717 1.02299 11.2814C0.304835 9.84508 0.304835 8.15446 1.02299 6.71815C1.11812 6.52788 1.23847 6.35131 1.38077 6.1932L2.10142 5.39247C2.76366 4.65662 3.1423 4.23589 3.49057 3.9105ZM13.0308 4.6225C11.7127 4.18316 10.2878 4.18316 8.96973 4.6225C7.86175 4.99183 6.99232 5.86126 6.62299 6.96924C6.18365 8.28727 6.18365 9.71224 6.62299 11.0303C6.99232 12.1383 7.86175 13.0077 8.96973 13.377C10.2878 13.8164 11.7127 13.8164 13.0308 13.377C14.1387 13.0077 15.0082 12.1383 15.3775 11.0303C15.8168 9.71224 15.8168 8.28727 15.3775 6.96924C15.0082 5.86126 14.1387 4.99183 13.0308 4.6225Z" fill="#BABBBE"/>
</svg>
