<svg width="19" height="21" viewBox="0 0 19 21" fill="none" xmlns="http://www.w3.org/2000/svg">
<path d="M12.1739 0.637763C10.4183 0.198871 8.58169 0.198871 6.82613 0.637763C5.49004 0.971783 4.47324 2.05706 4.22688 3.41204L4.20886 3.51117C3.72929 6.14882 3.72929 8.85133 4.20886 11.489L4.22688 11.5881C4.47324 12.9431 5.49004 14.0284 6.82613 14.3624C8.58169 14.8013 10.4183 14.8013 12.1739 14.3624C13.51 14.0284 14.5268 12.9431 14.7731 11.5881L14.7911 11.489C15.2707 8.85132 15.2707 6.14881 14.7911 3.51117L14.7731 3.41204C14.5268 2.05706 13.51 0.971783 12.1739 0.637763Z" fill="white"/>
<path d="M0.5 14.0131V12.0001H2.5V14.0131C2.5 15.2152 3.39511 16.2292 4.5879 16.3783C7.84994 16.786 11.1501 16.786 14.4121 16.3783C15.6049 16.2292 16.5 15.2152 16.5 14.0131V12.0001H18.5V14.0131C18.5 16.2239 16.8538 18.0886 14.6602 18.3628C13.2782 18.5356 11.8897 18.6387 10.5 18.6721V21.0001H8.5V18.6721C7.11027 18.6387 5.7218 18.5356 4.33984 18.3628C2.14618 18.0886 0.5 16.2239 0.5 14.0131Z" fill="white"/>
</svg>
