<svg width="49" height="48" viewBox="0 0 49 48" fill="none" xmlns="http://www.w3.org/2000/svg">
<path d="M25.5 3.66684C24.8705 3.87668 24.3765 4.37066 24.1667 5.00017C23.7339 6.29839 23.7339 7.70195 24.1667 9.00017C24.3765 9.62969 24.8705 10.1237 25.5 10.3335C26.7982 10.7662 28.2018 10.7662 29.5 10.3335C30.1295 10.1237 30.6235 9.62969 30.8333 9.00017C31.2661 7.70195 31.2661 6.2984 30.8333 5.00017C30.6235 4.37066 30.1295 3.87668 29.5 3.66684C28.2018 3.2341 26.7982 3.2341 25.5 3.66684Z" fill="#BABBBE"/>
<path d="M15.0525 43.2181C14.9574 43.6972 15.1423 44.1888 15.5296 44.4864L15.6727 44.5963C16.6915 45.3792 18.1476 45.2128 18.9636 44.2204C19.0825 44.0758 19.1656 43.9052 19.2062 43.7224L22.3 29.8004L24.9242 31.7998C25.6977 32.3891 26.0845 32.6838 26.2922 33.1033C26.5 33.5228 26.5 34.009 26.5 34.9815V43.5151C26.5 43.8258 26.6234 44.1238 26.8431 44.3435C27.7582 45.2586 29.2418 45.2586 30.1569 44.3435C30.3766 44.1238 30.5 43.8258 30.5 43.5151V34.429C30.5 32.7388 30.5 31.8937 30.1766 31.139C29.8532 30.3844 29.2412 29.8015 28.0172 28.6359L26.3 27.0004L27.55 20.8504C28.85 22.3504 30.4167 23.5837 32.25 24.5504C33.8567 25.3976 35.6555 25.8735 37.6463 25.9783C38.169 26.0057 38.6479 25.7047 38.882 25.2365C39.271 24.4584 39.271 23.5425 38.882 22.7643C38.6479 22.2962 38.1686 22.0081 37.6466 21.9691C36.0897 21.8529 34.6825 21.4134 33.425 20.6504C31.9417 19.7504 30.7667 18.6004 29.9 17.2004L27.9 14.0004C27.6333 13.5337 27.2917 13.1504 26.875 12.8504C26.4583 12.5504 26.0167 12.3171 25.55 12.1504C25.0833 11.9837 24.5917 11.9171 24.075 11.9504C23.5583 11.9837 23.0667 12.1004 22.6 12.3004L17.3662 14.5286C15.0064 15.5333 13.8265 16.0356 13.1633 17.0389C12.5 18.0422 12.5 19.3245 12.5 21.8893V25.1463C12.5 25.6698 12.7957 26.1483 13.2639 26.3824C14.042 26.7714 14.958 26.7714 15.7361 26.3824C16.2043 26.1483 16.5 25.6698 16.5 25.1463V21.9367C16.5 20.6122 16.5 19.9499 16.8493 19.4393C17.1985 18.9287 17.8158 18.6887 19.0502 18.2087L20.1 17.8004L15.0525 43.2181Z" fill="#BABBBE"/>
</svg>
