<svg width="18" height="16" viewBox="0 0 18 16" fill="none" xmlns="http://www.w3.org/2000/svg">
<path fill-rule="evenodd" clip-rule="evenodd" d="M11.8607 1.35095C10.255 -0.165159 7.74528 -0.165159 6.13958 1.35095C6.09595 1.39214 6.04806 1.44003 5.9777 1.51039L5.09481 2.39328C2.79467 4.69343 1.1905 7.59612 0.466834 10.7675C0.0262911 12.6981 1.23932 14.619 3.17187 15.0509L4.06427 15.2504C4.45392 15.3375 4.66137 15.3839 4.8682 15.4257C7.59518 15.9775 10.4051 15.9775 13.132 15.4257C13.3389 15.3839 13.5463 15.3375 13.936 15.2504L14.8284 15.0509C16.7609 14.619 17.9739 12.6981 17.5334 10.7675C16.8097 7.59612 15.2056 4.69343 12.9054 2.39328L12.0226 1.51045C11.9522 1.44007 11.9043 1.39214 11.8607 1.35095ZM8.16679 9.66658V3.83325H9.83345V9.66658H8.16679ZM8.37512 10.8124C8.23989 10.88 8.13024 10.9897 8.06262 11.1249C7.8659 11.5184 7.8659 11.9815 8.06262 12.3749C8.13024 12.5101 8.23989 12.6198 8.37512 12.6874C8.76857 12.8841 9.23168 12.8841 9.62512 12.6874C9.76035 12.6198 9.87001 12.5101 9.93762 12.3749C10.1343 11.9815 10.1343 11.5184 9.93762 11.1249C9.87001 10.9897 9.76035 10.88 9.62512 10.8124C9.23168 10.6157 8.76857 10.6157 8.37512 10.8124Z" fill="#EF4444"/>
</svg>
