<svg width="16" height="16" viewBox="0 0 16 16" fill="none" xmlns="http://www.w3.org/2000/svg">
<path fill-rule="evenodd" clip-rule="evenodd" d="M4.45686 2.31899C6.77262 1.65734 9.22739 1.65734 11.5432 2.31899C12.5772 2.61444 13.3856 3.42276 13.681 4.45685C14.3427 6.77262 14.3427 9.22739 13.681 11.5431C13.3856 12.5772 12.5772 13.3856 11.5432 13.681C9.22739 14.3427 6.77262 14.3427 4.45686 13.681C3.42277 13.3856 2.61444 12.5772 2.31899 11.5431C1.65734 9.22739 1.65734 6.77262 2.31899 4.45685C2.61444 3.42276 3.42277 2.61444 4.45686 2.31899ZM7.33333 4L7.33328 5.48669C7.33262 6.64534 7.33217 7.45123 7.68524 8.15738C8.03831 8.86352 8.6833 9.3467 9.6106 10.0414L10.2667 10.5333L11.0667 9.46667L10.5333 9.06667C9.43294 8.24137 9.07242 7.95031 8.87781 7.56109C8.6832 7.17187 8.66667 6.70882 8.66667 5.33333V4H7.33333Z" fill="white"/>
</svg>
