<svg width="49" height="48" viewBox="0 0 49 48" fill="none" xmlns="http://www.w3.org/2000/svg">
<path d="M13.534 21.3108C12.8816 21.7457 12.0649 21.8551 11.321 21.6071C8.28612 20.5955 5.90462 18.214 4.89298 15.1791C4.64502 14.4352 4.75439 13.6185 5.18933 12.9661L5.43645 12.5954C6.07577 11.6365 6.77312 10.7205 7.52376 9.85231L5.08578 7.41433L7.91421 4.5859L10.3522 7.02388C11.2204 6.27324 12.1363 5.57589 13.0953 4.93657L13.466 4.68945C14.1184 4.25451 14.9351 4.14514 15.6789 4.3931C18.7139 5.40474 21.0954 7.78625 22.107 10.8212C22.355 11.565 22.2456 12.3817 21.8107 13.0341L21.5635 13.4048C20.9242 14.3638 20.2269 15.2797 19.4762 16.1479L30.3974 27.0691C31.4398 26.1523 32.5444 25.3039 33.7045 24.5304L33.9267 24.3823C34.2884 24.1412 34.7412 24.0805 35.1537 24.218C38.5193 25.3399 41.1602 27.9808 42.2821 31.3464C42.4196 31.7589 42.3589 32.2117 42.1178 32.5734L41.9697 32.7956C41.1963 33.9557 40.3478 35.0603 39.431 36.1027L41.9142 38.5859L39.0858 41.4143L36.6026 38.9311C35.5601 39.848 34.4556 40.6964 33.2954 41.4698L33.0733 41.6179C32.7116 41.8591 32.2588 41.9197 31.8463 41.7822C28.4807 40.6604 25.8398 38.0194 24.7179 34.6538C24.5804 34.2414 24.6411 33.7885 24.8822 33.4268L25.0303 33.2047C25.8037 32.0445 26.6521 30.94 27.569 29.8976L16.6478 18.9764C15.7796 19.727 14.8637 20.4243 13.9047 21.0637L13.534 21.3108Z" fill="white"/>
</svg>
