<svg width="49" height="48" viewBox="0 0 49 48" fill="none" xmlns="http://www.w3.org/2000/svg">
<path fill-rule="evenodd" clip-rule="evenodd" d="M16.1001 6.8C18.5235 4.98249 21.4709 4 24.5001 4H27.4152C31.2014 4 34.8326 5.5041 37.51 8.1814C39.3396 10.011 40.6376 12.3035 41.2651 14.8137L41.4916 15.7197C42.1942 18.53 42.1942 21.47 41.4916 24.2803L41.3341 24.9104C40.6796 27.5283 39.5084 29.989 37.8893 32.1477L35.1264 35.8317C34.7199 36.3737 34.5001 37.0329 34.5001 37.7104V40.3636C34.5001 42.3719 32.8721 44 30.8638 44H21.3281C19.7663 44 18.5001 42.7339 18.5001 41.172V40.1231C18.5001 38.6177 17.4755 37.3054 16.0151 36.9403L14.5672 36.5783C12.1769 35.9808 10.5001 33.8331 10.5001 31.3693V30.169C10.5001 30.0757 10.4244 30 10.3311 30C7.95943 30 6.77361 30 6.17683 29.3276C6.03186 29.1643 5.91463 28.9783 5.82978 28.7771C5.48047 27.9487 5.99184 26.8788 7.01458 24.739L10.5012 17.4443C10.5529 13.3447 12.5043 9.49688 15.7893 7.03314L16.1001 6.8ZM20.9891 14.3956C22.0549 14.0403 23.2182 14.123 24.2231 14.6254L25.8891 15.4585C26.2738 15.6508 26.7267 15.6508 27.1114 15.4585L28.7774 14.6254C29.7823 14.123 30.9456 14.0403 32.0114 14.3956L32.0778 14.4178C33.9686 15.048 35.4523 16.5317 36.0826 18.4225C36.4672 19.5763 36.3284 20.8405 35.7027 21.8833L35.4083 22.374C33.7995 25.0553 31.5554 27.2993 28.8741 28.9081L28.497 29.1344C27.2679 29.8718 25.7325 29.8718 24.5035 29.1344L24.1264 28.9081C21.4451 27.2993 19.201 25.0553 17.5922 22.374L17.2978 21.8833C16.6721 20.8405 16.5333 19.5763 16.9179 18.4225C17.5482 16.5317 19.0319 15.048 20.9227 14.4178L20.9891 14.3956Z" fill="#BABBBE"/>
</svg>
